# xmcd CD database file
#
# Track frame offsets:
#	150
#	20288
#	41687
#	63468
#	68720
#	80470
#	88206
#	94676
#	112147
#	127139
#	131359
#	158130
#	173415
#	193770
#	211775
#	219352
#
# Disc length: 3066 seconds
#
# Revision: 0
# Processed by: cddbd v1.5.2PL0 Copyright (c) Steve Scherf et al.
# Submitted via: CDex 1.51
#
DISCID=db0bf810
DTITLE=Pater Brown 07 - Das Paradies der Diebe 
DYEAR=2007
DGENRE=Hörspiel
TTITLE0=Pater Brown 07 - Das Paradies der Diebe 
TTITLE1=Pater Brown 07 - Das Paradies der Diebe 
TTITLE2=Pater Brown 07 - Das Paradies der Diebe 
TTITLE3=Pater Brown 07 - Das Paradies der Diebe 
TTITLE4=Pater Brown 07 - Das Paradies der Diebe 
TTITLE5=Pater Brown 07 - Das Paradies der Diebe 
TTITLE6=Pater Brown 07 - Das Paradies der Diebe 
TTITLE7=Pater Brown 07 - Das Paradies der Diebe 
TTITLE8=Pater Brown 07 - Das Paradies der Diebe 
TTITLE9=Pater Brown 07 - Das Paradies der Diebe 
TTITLE10=Pater Brown 07 - Das Paradies der Diebe 
TTITLE11=Pater Brown 07 - Das Paradies der Diebe 
TTITLE12=Pater Brown 07 - Das Paradies der Diebe 
TTITLE13=Pater Brown 07 - Das Paradies der Diebe 
TTITLE14=Pater Brown 07 - Das Paradies der Diebe 
TTITLE15=Pater Brown 07 - Das Paradies der Diebe 
EXTD=YEAR: 2007
EXTT0=
EXTT1=
EXTT2=
EXTT3=
EXTT4=
EXTT5=
EXTT6=
EXTT7=
EXTT8=
EXTT9=
EXTT10=
EXTT11=
EXTT12=
EXTT13=
EXTT14=
EXTT15=
PLAYORDER=
